<mxfile host="app.diagrams.net" modified="2021-10-31T11:05:21.816Z" agent="5.0 (Windows NT 10.0; Win64; x64) AppleWebKit/537.36 (KHTML, like Gecko) Chrome/95.0.4638.69 Safari/537.36" etag="y7N6EgHWana8F6TEhY3G" version="15.5.8" type="github">
  <diagram id="F-le6JkDn2abJ1YmbISG" name="Page-1">
    <mxGraphModel dx="1038" dy="547" grid="1" gridSize="10" guides="1" tooltips="1" connect="1" arrows="1" fold="1" page="1" pageScale="1" pageWidth="827" pageHeight="1169" math="0" shadow="0">
      <root>
        <mxCell id="0" />
        <mxCell id="1" parent="0" />
        <mxCell id="l4MFDGq0l9K1EU0N_Pog-1" value="Raw Data_1" style="rounded=1;whiteSpace=wrap;html=1;fontSize=19;" parent="1" vertex="1">
          <mxGeometry x="100" y="60" width="120" height="60" as="geometry" />
        </mxCell>
        <mxCell id="0d0Xr8oC8OI6ENRVtBO4-1" value="Raw Data_2" style="rounded=1;whiteSpace=wrap;html=1;fontSize=19;" vertex="1" parent="1">
          <mxGeometry x="269" y="60" width="120" height="60" as="geometry" />
        </mxCell>
        <mxCell id="0d0Xr8oC8OI6ENRVtBO4-2" value="Raw Data_3" style="rounded=1;whiteSpace=wrap;html=1;fontSize=19;" vertex="1" parent="1">
          <mxGeometry x="439" y="60" width="120" height="60" as="geometry" />
        </mxCell>
        <mxCell id="0d0Xr8oC8OI6ENRVtBO4-3" value="Raw Data_4" style="rounded=1;whiteSpace=wrap;html=1;fontSize=19;" vertex="1" parent="1">
          <mxGeometry x="610" y="60" width="120" height="60" as="geometry" />
        </mxCell>
        <mxCell id="0d0Xr8oC8OI6ENRVtBO4-4" value="One Hot Encoding" style="rounded=0;whiteSpace=wrap;html=1;fontSize=19;" vertex="1" parent="1">
          <mxGeometry x="610" y="200" width="120" height="60" as="geometry" />
        </mxCell>
        <mxCell id="0d0Xr8oC8OI6ENRVtBO4-5" value="MultiLabel" style="rhombus;whiteSpace=wrap;html=1;fontSize=19;" vertex="1" parent="1">
          <mxGeometry x="326" y="190" width="176" height="80" as="geometry" />
        </mxCell>
        <mxCell id="0d0Xr8oC8OI6ENRVtBO4-6" value="Merge Data" style="rounded=0;whiteSpace=wrap;html=1;fontSize=19;" vertex="1" parent="1">
          <mxGeometry x="354" y="330" width="120" height="60" as="geometry" />
        </mxCell>
        <mxCell id="0d0Xr8oC8OI6ENRVtBO4-7" value="Record Column Name" style="rounded=0;whiteSpace=wrap;html=1;fontSize=19;" vertex="1" parent="1">
          <mxGeometry x="800" y="200" width="200" height="60" as="geometry" />
        </mxCell>
        <mxCell id="0d0Xr8oC8OI6ENRVtBO4-8" value="Design five Group of test data" style="rounded=0;whiteSpace=wrap;html=1;fontSize=19;" vertex="1" parent="1">
          <mxGeometry x="282" y="460" width="264" height="60" as="geometry" />
        </mxCell>
      </root>
    </mxGraphModel>
  </diagram>
</mxfile>
